<svg width="28" height="20" viewBox="0 0 28 20" fill="none" xmlns="http://www.w3.org/2000/svg">
<g clip-path="url(#clip0_159_99)">
<path d="M1.52897 0H26.471C27.3141 0.00455729 28 0.694987 28 1.53809V17.9398C28 18.7852 27.3073 19.4779 26.4619 19.4779H1.52897C0.688151 19.4733 0 18.7829 0 17.9398V1.53809C0 0.694987 0.685872 0.00455729 1.52897 0Z" fill="#FF9933"/>
<path d="M0 6.49188H28V12.986H0V6.49188Z" fill="white"/>
<path d="M0 12.986H28V17.9398C28 18.7852 27.3073 19.4779 26.4619 19.4779H1.52897C0.688151 19.4733 0 18.7829 0 17.9398V12.986Z" fill="#128807"/>
<path d="M16.5977 9.73889C16.5977 8.30335 15.4355 7.14124 14 7.14124C12.5645 7.14124 11.4023 8.30335 11.4023 9.73889C11.4023 11.1722 12.5645 12.3365 14 12.3365C15.4355 12.3365 16.5977 11.1744 16.5977 9.73889Z" fill="#000088"/>
<path d="M16.2718 9.73891C16.2718 8.48338 15.2556 7.4671 14 7.4671C12.7445 7.4671 11.7282 8.48338 11.7282 9.73891C11.7282 10.9944 12.7445 12.0107 14 12.0107C15.2556 12.0107 16.2718 10.9944 16.2718 9.73891Z" fill="white"/>
<path d="M14.4534 9.73893C14.4534 9.48828 14.2506 9.2832 14 9.2832C13.7493 9.2832 13.5465 9.486 13.5465 9.73893C13.5465 9.98959 13.7493 10.1924 14 10.1924C14.2506 10.1924 14.4534 9.98959 14.4534 9.73893Z" fill="#000088"/>
<path d="M16.3652 10.0511C16.3743 9.98955 16.3288 9.93258 16.2673 9.92347C16.2057 9.91435 16.1488 9.95992 16.1397 10.0214C16.1305 10.083 16.1761 10.1399 16.2376 10.1491C16.3014 10.1559 16.3584 10.1126 16.3652 10.0511Z" fill="#000088"/>
<path d="M14 12.0107L14.0775 10.6481L14 9.99866L13.9225 10.6481L14 12.0107Z" fill="#000088"/>
<path d="M16.2034 10.6526C16.2285 10.5957 16.1989 10.5273 16.1419 10.5045C16.0849 10.4795 16.0166 10.5091 15.9938 10.566C15.9687 10.623 15.9983 10.6914 16.0553 10.7142C16.1145 10.7369 16.1806 10.7096 16.2034 10.6526Z" fill="black"/>
<path d="M13.4121 11.9332L13.8405 10.6367L13.9339 9.98956L13.6901 10.598L13.4121 11.9332Z" fill="black"/>
<path d="M15.8935 11.1927C15.9323 11.1426 15.9231 11.0719 15.873 11.0332C15.8229 10.9945 15.7522 11.0036 15.7135 11.0537C15.6748 11.1038 15.6839 11.1745 15.734 11.2132C15.7841 11.252 15.8548 11.2406 15.8935 11.1927Z" fill="black"/>
<path d="M12.8629 11.7077L13.6126 10.5661L13.8701 9.96454L13.4781 10.4863L12.8629 11.7077Z" fill="black"/>
<path d="M15.4515 11.6325C15.5016 11.5937 15.5108 11.5231 15.472 11.473C15.4333 11.4228 15.3626 11.4137 15.3125 11.4525C15.2624 11.4912 15.2533 11.5618 15.292 11.612C15.3307 11.6598 15.4037 11.6712 15.4515 11.6325Z" fill="black"/>
<path d="M12.3936 11.3454L13.4121 10.4362L13.8154 9.92352L13.3027 10.3268L12.3936 11.3454Z" fill="black"/>
<path d="M14.9137 11.9447C14.9707 11.9196 15.0003 11.8535 14.9753 11.7966C14.9502 11.7396 14.8841 11.71 14.8272 11.7351C14.7702 11.7578 14.7406 11.8262 14.7656 11.8832C14.7884 11.9401 14.8545 11.9675 14.9137 11.9447Z" fill="black"/>
<path d="M12.0312 10.876L13.2526 10.2608L13.7744 9.86884L13.1729 10.1263L12.0312 10.876Z" fill="black"/>
<path d="M14.3122 12.1042C14.3737 12.095 14.417 12.0381 14.4101 11.9766C14.401 11.915 14.3441 11.8717 14.2825 11.8786C14.221 11.8877 14.1777 11.9447 14.1845 12.0062C14.1914 12.07 14.2483 12.1133 14.3122 12.1042Z" fill="black"/>
<path d="M11.8057 10.3269L13.1432 10.0489L13.7493 9.80731L13.1022 9.89846L11.8057 10.3269Z" fill="black"/>
<path d="M13.6878 12.1042C13.7493 12.1133 13.8063 12.0677 13.8154 12.0062C13.8245 11.9447 13.7789 11.8877 13.7174 11.8786C13.6559 11.8695 13.5989 11.9151 13.5898 11.9766C13.583 12.0404 13.6263 12.0974 13.6878 12.1042Z" fill="black"/>
<path d="M11.7282 9.73891L13.0908 9.81638L13.7403 9.73891L13.0908 9.66144L11.7282 9.73891Z" fill="black"/>
<path d="M13.0863 11.9447C13.1432 11.9698 13.2116 11.9401 13.2344 11.8832C13.2572 11.8262 13.2298 11.7578 13.1729 11.7351C13.1159 11.71 13.0475 11.7396 13.0248 11.7966C13.002 11.8535 13.0293 11.9196 13.0863 11.9447Z" fill="black"/>
<path d="M11.8057 9.15106L13.1022 9.57945L13.7493 9.67287L13.1432 9.42906L11.8057 9.15106Z" fill="black"/>
<path d="M12.5462 11.6325C12.5963 11.6712 12.667 11.6621 12.7057 11.612C12.7444 11.5618 12.7353 11.4912 12.6852 11.4525C12.6351 11.4137 12.5644 11.4228 12.5257 11.473C12.4892 11.5231 12.4983 11.5937 12.5462 11.6325Z" fill="black"/>
<path d="M12.0312 8.60187L13.1729 9.35154L13.7744 9.60903L13.2526 9.2171L12.0312 8.60187Z" fill="black"/>
<path d="M12.1064 11.1927C12.1452 11.2428 12.2158 11.252 12.2659 11.2132C12.3161 11.1745 12.3252 11.1038 12.2865 11.0537C12.2477 11.0036 12.1771 10.9945 12.1269 11.0332C12.0791 11.0697 12.0677 11.1426 12.1064 11.1927Z" fill="black"/>
<path d="M12.3936 8.13245L13.3027 9.151L13.8154 9.5566L13.4121 9.04163L12.3936 8.13245Z" fill="black"/>
<path d="M11.7942 10.6526C11.8193 10.7096 11.8854 10.7392 11.9423 10.7142C11.9993 10.6891 12.0289 10.623 12.0039 10.566C11.9788 10.5091 11.9127 10.4795 11.8557 10.5045C11.7988 10.5273 11.7714 10.5934 11.7942 10.6526Z" fill="black"/>
<path d="M12.8629 7.7702L13.4781 8.99156L13.8701 9.51337L13.6126 8.91408L12.8629 7.7702Z" fill="black"/>
<path d="M11.6348 10.0511C11.6439 10.1126 11.7008 10.1559 11.7624 10.1491C11.8239 10.14 11.8672 10.083 11.8603 10.0215C11.8512 9.95996 11.7943 9.91666 11.7327 9.9235C11.6689 9.93034 11.6256 9.9873 11.6348 10.0511Z" fill="black"/>
<path d="M13.4121 7.54462L13.6901 8.88218L13.9339 9.4883L13.8405 8.84117L13.4121 7.54462Z" fill="black"/>
<path d="M11.6348 9.42676C11.6257 9.48828 11.6713 9.54525 11.7328 9.55436C11.7943 9.56347 11.8513 9.5179 11.8604 9.45638C11.8695 9.39485 11.824 9.33789 11.7624 9.32877C11.6986 9.32194 11.6417 9.36523 11.6348 9.42676Z" fill="black"/>
<path d="M14 7.4671L13.9225 8.82973L14 9.47915L14.0775 8.82973L14 7.4671Z" fill="black"/>
<path d="M11.7966 8.82523C11.7715 8.88219 11.8011 8.95055 11.8581 8.97334C11.9151 8.99612 11.9834 8.96878 12.0062 8.91181C12.0313 8.85485 12.0017 8.78649 11.9447 8.7637C11.8854 8.74092 11.8194 8.76826 11.7966 8.82523Z" fill="black"/>
<path d="M14.5879 7.54462L14.1595 8.84117L14.0661 9.4883L14.3099 8.88218L14.5879 7.54462Z" fill="black"/>
<path d="M12.1065 8.28748C12.0677 8.33761 12.0768 8.40825 12.127 8.44699C12.1771 8.48572 12.2477 8.47661 12.2865 8.42648C12.3252 8.37635 12.3161 8.30571 12.266 8.26697C12.2158 8.22824 12.1452 8.23735 12.1065 8.28748Z" fill="black"/>
<path d="M15.1371 7.7702L14.3874 8.91408L14.1299 9.51337L14.5218 8.99156L15.1371 7.7702Z" fill="black"/>
<path d="M12.5485 7.84535C12.4984 7.88409 12.4893 7.95473 12.528 8.00486C12.5668 8.05499 12.6374 8.0641 12.6875 8.02537C12.7377 7.98663 12.7468 7.91599 12.708 7.86586C12.6693 7.81573 12.5964 7.80889 12.5485 7.84535Z" fill="black"/>
<path d="M15.6064 8.13245L14.5879 9.04163L14.1846 9.5566L14.6973 9.151L15.6064 8.13245Z" fill="black"/>
<path d="M13.0863 7.53548C13.0293 7.56054 13.002 7.62662 13.0248 7.68359C13.0498 7.74055 13.1159 7.77018 13.1729 7.74511C13.2298 7.72005 13.2595 7.65397 13.2344 7.597C13.2116 7.53776 13.1455 7.51041 13.0863 7.53548Z" fill="black"/>
<path d="M15.9687 8.60187L14.7474 9.2171L14.2256 9.60903L14.8271 9.35154L15.9687 8.60187Z" fill="black"/>
<path d="M13.6878 7.37366C13.6263 7.38277 13.583 7.43974 13.5898 7.50126C13.5989 7.56279 13.6559 7.60608 13.7174 7.59925C13.7789 7.59013 13.8245 7.53317 13.8154 7.47164C13.8086 7.41012 13.7516 7.36455 13.6878 7.37366Z" fill="black"/>
<path d="M16.1944 9.15106L14.8568 9.42906L14.2507 9.67287L14.8978 9.57945L16.1944 9.15106Z" fill="black"/>
<path d="M14.3122 7.37366C14.2507 7.36455 14.1937 7.41012 14.1846 7.47164C14.1755 7.53316 14.221 7.59013 14.2826 7.59924C14.3441 7.60836 14.4011 7.56279 14.4102 7.50126C14.417 7.43974 14.3737 7.3805 14.3122 7.37366Z" fill="black"/>
<path d="M16.2718 9.73891L14.9092 9.66144L14.2598 9.73891L14.9092 9.81638L16.2718 9.73891Z" fill="black"/>
<path d="M14.9137 7.53553C14.8568 7.51046 14.7884 7.54008 14.7656 7.59705C14.7406 7.65402 14.7702 7.72238 14.8272 7.74516C14.8841 7.76795 14.9525 7.74061 14.9753 7.68364C14.9981 7.62439 14.9707 7.55831 14.9137 7.53553Z" fill="black"/>
<path d="M16.1944 10.3269L14.8978 9.89846L14.2507 9.80731L14.8568 10.0489L16.1944 10.3269Z" fill="black"/>
<path d="M15.4515 7.84534C15.4014 7.80661 15.3307 7.81572 15.292 7.86585C15.2533 7.91598 15.2624 7.98662 15.3125 8.02536C15.3626 8.06409 15.4333 8.05498 15.472 8.00485C15.5108 7.95472 15.5016 7.88408 15.4515 7.84534Z" fill="black"/>
<path d="M15.9687 10.876L14.8271 10.1263L14.2256 9.86884L14.7474 10.2608L15.9687 10.876Z" fill="black"/>
<path d="M15.8935 8.28748C15.8548 8.23735 15.7841 8.22824 15.734 8.26697C15.6839 8.30571 15.6748 8.37635 15.7135 8.42648C15.7522 8.47661 15.8229 8.48572 15.873 8.44699C15.9209 8.40825 15.9323 8.33533 15.8935 8.28748Z" fill="black"/>
<path d="M15.6064 11.3454L14.6973 10.3268L14.1846 9.92352L14.5879 10.4362L15.6064 11.3454Z" fill="black"/>
<path d="M16.2057 8.8252C16.1807 8.76823 16.1146 8.73861 16.0576 8.76368C16.0007 8.78874 15.971 8.85482 15.9961 8.91179C16.0212 8.96875 16.0872 8.9961 16.1442 8.97331C16.2012 8.95052 16.2285 8.88444 16.2057 8.8252Z" fill="black"/>
<path d="M15.1371 11.7077L14.5218 10.4863L14.1299 9.96454L14.3874 10.5661L15.1371 11.7077Z" fill="black"/>
<path d="M16.3652 9.42676C16.3561 9.36523 16.2991 9.32194 16.2376 9.32877C16.1761 9.33789 16.1328 9.39486 16.1396 9.45638C16.1487 9.5179 16.2057 9.5612 16.2672 9.55436C16.331 9.54753 16.3743 9.49056 16.3652 9.42676Z" fill="black"/>
<path d="M14.5879 11.9332L14.3099 10.598L14.0661 9.98956L14.1595 10.6367L14.5879 11.9332Z" fill="black"/>
</g>
<defs>
<clipPath id="clip0_159_99">
<rect width="28" height="19.4779" fill="white"/>
</clipPath>
</defs>
</svg>
